<svg width="19" height="21" viewBox="0 0 19 21" fill="none" xmlns="http://www.w3.org/2000/svg">
<path d="M7.32803 20.8959C5.81336 20.8959 4.48003 20.7039 3.32803 20.3199C2.17603 19.9146 1.06669 19.2106 2.68668e-05 18.2079L1.02403 13.4079H6.43203C6.43203 13.3866 6.41069 13.4612 6.36803 13.6319C6.34669 13.8026 6.31469 14.0266 6.27203 14.3039C6.25069 14.5812 6.21869 14.8906 6.17603 15.2319C6.15469 15.5732 6.14403 15.9039 6.14403 16.2239C6.14403 17.0986 6.25069 17.7279 6.46403 18.1119C6.69869 18.4746 7.01869 18.6559 7.42403 18.6559C7.87203 18.6559 8.28803 18.5066 8.67203 18.2079C9.07736 17.9092 9.41869 17.5359 9.69603 17.0879C9.97336 16.6399 10.1867 16.1492 10.336 15.6159C10.5067 15.0612 10.592 14.5279 10.592 14.0159C10.592 13.0346 10.336 12.3092 9.82403 11.8399C9.33336 11.3492 8.72536 11.1039 8.00003 11.1039C8.06403 10.6986 8.13869 10.3359 8.22403 10.0159C8.28803 9.73856 8.34136 9.49323 8.38403 9.27989C8.44803 9.04523 8.48003 8.91723 8.48003 8.89589C9.18403 8.89589 9.77069 8.78923 10.24 8.57589C10.7307 8.34123 11.1254 8.03189 11.424 7.64789C11.744 7.24256 11.968 6.77323 12.096 6.23989C12.224 5.68523 12.288 5.09856 12.288 4.47989C12.288 4.22389 12.2667 3.96789 12.224 3.71189C12.2027 3.43456 12.1494 3.18922 12.064 2.97589C11.9787 2.74122 11.8507 2.55989 11.68 2.43189C11.5307 2.28256 11.3174 2.20789 11.04 2.20789C10.464 2.20789 9.89869 2.54922 9.34403 3.23189C8.81069 3.91456 8.33069 5.07723 7.90403 6.71989H2.40003L3.36003 2.20789C4.00003 1.80256 4.73603 1.43989 5.56803 1.11989C6.27203 0.842559 7.11469 0.586559 8.09603 0.351892C9.09869 0.117225 10.24 -0.000108719 11.52 -0.000108719C12.352 -0.000108719 13.184 0.0745583 14.016 0.223892C14.848 0.351892 15.5947 0.597225 16.256 0.959892C16.9387 1.32256 17.4827 1.81322 17.888 2.43189C18.3147 3.05056 18.528 3.83989 18.528 4.79989C18.528 5.52523 18.4 6.16523 18.144 6.71989C17.9094 7.25323 17.5574 7.73323 17.088 8.15989C16.6187 8.58656 16.0534 8.97056 15.392 9.31189C14.752 9.65323 14.016 9.97323 13.184 10.2719C13.824 10.3359 14.4214 10.4639 14.976 10.6559C15.5307 10.8479 16.0107 11.1146 16.416 11.4559C16.8427 11.7972 17.1734 12.2132 17.408 12.7039C17.664 13.1946 17.792 13.7812 17.792 14.4639C17.792 15.3812 17.5467 16.2346 17.056 17.0239C16.5654 17.8132 15.8614 18.4959 14.944 19.0719C14.048 19.6479 12.9494 20.0959 11.648 20.4159C10.368 20.7359 8.92803 20.8959 7.32803 20.8959Z" fill="#D90429"/>
</svg>
